<svg id="Layer_1" data-name="Layer 1" xmlns="http://www.w3.org/2000/svg" viewBox="0 0 3000 1003"><defs><style>.cls-1{fill:#fff;}</style></defs><path class="cls-1" d="M1798,102.71v637c-.71,7.36-1.45,14.72-2.13,22.08-1.88,20.27-5,40.34-13.41,59-27.8,62.14-77.13,93.55-143.84,99.74q-11.8,1.1-23.62,2.15H-1019a33.81,33.81,0,0,0-4.19-1c-13.7-1.42-27.57-1.94-41.1-4.31-44.73-7.82-80.39-30.44-106.5-67.69C-1192,819.54-1199.08,785-1200.88,749c-.19-3.75-.74-7.49-1.12-11.24v-633a33.2,33.2,0,0,0,1-4.24c1.41-14,2-28.23,4.29-42.12q10.85-65.84,64.93-105.42c30.57-22.35,65.67-30.22,102.65-32.09,3.74-.18,7.46-.74,11.18-1.13H1614a11.16,11.16,0,0,0,2.69.93c10.11.78,20.26,1.2,30.34,2.26,21.67,2.29,42.54,7.82,61.72,18.29,55,30,81.94,77.67,87.11,139C1796.5,87.67,1797.28,95.19,1798,102.71ZM297.75,901.52v-.61q652.18,0,1304.38-.17a397.59,397.59,0,0,0,53.6-4c25.21-3.46,47.68-14,67.36-30.24,34.45-28.47,49.38-66.31,52-109.75,1.18-19.92,1.68-39.91,1.68-59.87q-.12-291.71-.71-583.41a362.74,362.74,0,0,0-3.94-50.12c-8.52-59.66-54.79-112.1-128.37-119.51-21-2.11-42.18-2.75-63.28-2.76q-545-.24-1089.94-.1-753.43.21-1506.87.82a223.36,223.36,0,0,0-49.44,5.16c-57.16,13.17-93.57,48.6-108.32,105.62-6.48,25-6.52,50.77-6.53,76.32q0,302.46.7,604.91a252.3,252.3,0,0,0,5.06,51.47c12.3,57.8,48,94.16,104.91,109.53,25.29,6.84,51.42,6.63,77.32,6.64Q-347.47,901.64,297.75,901.52Z" transform="translate(1202 80.29)"/><path d="M297.75,901.52q-645.21,0-1290.43-.12c-25.9,0-52,.2-77.32-6.64-56.87-15.37-92.61-51.73-104.91-109.53a252.3,252.3,0,0,1-5.06-51.47q-.81-302.44-.7-604.91c0-25.55.05-51.3,6.53-76.32,14.75-57,51.16-92.45,108.32-105.62a223.36,223.36,0,0,1,49.44-5.16q753.44-.7,1506.87-.82,545-.13,1089.94.1c21.1,0,42.3.65,63.28,2.76,73.58,7.41,119.85,59.85,128.37,119.51a362.74,362.74,0,0,1,3.94,50.12q.7,291.7.71,583.41c0,20-.5,39.95-1.68,59.87-2.58,43.44-17.51,81.28-52,109.75-19.68,16.26-42.15,26.78-67.36,30.24a397.59,397.59,0,0,1-53.6,4q-652.19.33-1304.38.17Zm-820-577.24c-.73-1.09-1.43-2.2-2.19-3.26C-555.2,278.14-614,261.35-660,274.5c-16.71,4.77-32.94,11.29-49.21,17.49-11.6,4.43-22.92,4.74-34.45.2-9.57-3.77-19.23-7.32-28.77-11.14-23.33-9.35-47.14-12.37-71.73-5.82-46.19,12.3-77.08,41.78-94.69,85.49-15,37.33-15.94,76.22-9.93,115.38a339.12,339.12,0,0,0,45.85,126.55c13.91,22.77,29.35,44.5,49.16,62.69,16.67,15.29,35.89,23.09,58.55,17.21,11.49-3,22.64-7.5,33.7-11.95,19.62-7.91,39.92-11.12,60.51-6.55,13.32,3,26,8.69,38.94,13.42,14.63,5.36,29.44,8,45,4.67,16.66-3.61,29.89-13,40.81-25.44,24.29-27.66,44.48-58.07,59.13-92,3.58-8.29,6.45-16.9,9.62-25.3C-598.7,499-607.24,375.75-522.28,324.28ZM548,597.9c.47,4.1.68,7.59,1.3,11,5.89,32.33,24.34,55.09,54.14,68,39.07,17,79.32,17,119.3,3.83,37-12.17,60.06-37.21,63.85-77.23,2.08-21.94-1.93-42.51-17.18-59.55a88.42,88.42,0,0,0-39.61-25.13c-21.46-6.83-43.36-12.31-65.14-18.13-15.1-4-30.28-7.85-43.36-16.93-8.56-5.94-14.5-13.7-15.23-24.53-1.3-19.38,8.08-35,26.6-43.22,22.14-9.76,44.92-10.1,67.56-2.07,15.68,5.55,27,16.21,32.27,32.39,1.24,3.76,1.93,7.71,2.89,11.69H781.8a28.22,28.22,0,0,0,.15-3.76c-3.22-32.69-19.13-57.36-48.51-71.85-40.86-20.16-83-20.1-124.39-2.08C578,393.92,559.1,417.9,556.6,452.75c-1.47,20.45,3,39.36,16.81,55.24A89.32,89.32,0,0,0,615,534.57c21,6.52,42.56,11.59,63.9,17.17,14.66,3.83,29.19,7.88,41.85,16.72,11,7.67,17.12,18.08,17,31.56-.13,19.87-11.52,32.38-28.32,40.52-18.62,9-38.46,10.09-58.5,6.5a94.79,94.79,0,0,1-22.26-6.89c-18.22-8.27-30-22.1-33-42.25Zm-886.8,86.49c15.74,0,30.54-.15,45.33.1,3.87.06,5.43-1.26,6.61-4.83,8.29-25,16.85-50,25.19-75,1-3.13,2.45-4.37,6-4.35q55,.23,110,0c3.52,0,4.81,1.25,5.86,4.4,8.2,24.72,16.7,49.35,24.83,74.09,1.44,4.38,3.41,5.86,8.07,5.73,13.15-.37,26.32-.12,39.49-.14,1.72,0,3.44-.15,5.55-.25l-7-19.39q-51.79-143.5-103.5-287c-1.27-3.53-2.82-4.82-6.64-4.76q-21.24.38-42.49,0c-3.8-.07-5.37,1.14-6.66,4.74q-51.68,143.57-103.6,287C-334.11,670.92-336.28,677.16-338.84,684.39ZM13.79,647.92l.91-.28c1.13,1.74,2.23,3.51,3.4,5.22s2.4,3.61,3.79,5.27c21.56,25.85,50,32.27,81.5,27,33.7-5.61,55.45-26.63,67.53-57.75s12.88-63.2,5.44-95.55c-4.81-20.87-14-39.5-30-54.09-20.18-18.37-44.33-24.88-71.08-22.07-25.52,2.69-46.13,14-60.29,36-.63,1-1.44,1.84-3.06,3.88V457.89h-44.6V759.36H13.79Zm249.44-1.45a23,23,0,0,1,2.33,2.56c17.94,32.1,55.39,42.22,88.15,36.13,31.37-5.84,52.61-24.56,65.14-53.19,13.74-31.38,15-64.25,8-97.29-9.65-45.55-40-76.71-84.93-79.37-25.37-1.5-48.16,5-66.58,23.27-4.74,4.71-8.59,10.3-13.34,16.08V457.84H217.23V759.45h46Zm1279.58-63.63c.61-16.09.28-31.5-2.81-46.72-5.8-28.61-19.09-52.45-44.88-67.69-21.28-12.58-44.56-15.76-68.8-12.89-37.51,4.43-64.68,23.7-79.4,58.45-15.58,36.76-15.69,74.56-1.64,111.8,10.45,27.7,30.58,46.44,58.85,55.65,21.95,7.15,44.41,7.49,66.91,2.61,19.64-4.25,36.94-13,50.71-27.9a70.56,70.56,0,0,0,18.43-38.21h-43.75c-11.78,31.34-51.15,36.74-75.89,27.88-29.06-10.41-40.15-41.51-37.13-63ZM954.62,570.93c1.78,12.46,2.61,25.15,5.52,37.33,8.18,34.19,27.71,59.29,61.34,71.93,19.55,7.34,39.85,8.45,60.36,5.63,36.2-5,63.31-23.35,77.69-57.2,16.34-38.46,16.15-77.77-.42-116.25-11.57-26.85-32.19-44.31-60.27-52.78a124.55,124.55,0,0,0-53.31-3.83c-28.69,3.92-52.39,16.66-69.13,40.82C961,518.87,955.79,544.12,954.62,570.93ZM887.68,404H840.79c0,16.11-.15,31.91.1,47.71.06,4.43-.92,6.15-5.73,5.93-8.93-.4-17.89-.11-27.1-.11v37h32.73v6.66c0,40.83,0,81.66.06,122.48a161.32,161.32,0,0,0,1.21,19.41c2.62,21.39,14.67,34.75,35.59,39.8,13.24,3.2,26.68,3.46,40.17,2.31,4.07-.35,8.11-1,12.08-1.45v-36c-6.6,0-12.9.12-19.18,0-11.33-.25-19.19-6.46-21.91-17.46a41.81,41.81,0,0,1-1.09-9.86q-.11-60.24,0-120.48c0-1.75.17-3.5.27-5.48,12.78,0,24.95-.24,37.09.12,4.79.14,5.93-1.5,5.72-5.94-.33-7.15-.09-14.33-.09-21.5v-9.78h-43ZM1325,456.78c-12-2.72-23.82-2.51-35.39,1.41-18,6.09-28.87,19.18-35.64,36.66V457.93h-44.59V673.22c0,11.17,0,11.17,11.27,11.17H1256V678q0-62.49,0-125a120.36,120.36,0,0,1,1-15.41c3.08-23.63,21.61-39.94,45.4-39.85,7.41,0,14.82.83,22.48,1.29Zm-1527.61-279c-.7-11.25-4.41-19.63-11.66-27-20.05-20.39-62.75-21-83.85-1.62-16.93,15.52-19.85,53.41,10.62,66.24a151.51,151.51,0,0,0,16,5.34c11.6,3.4,23.41,6.15,34.82,10.1,7.6,2.63,12.91,8.14,13,17.09.11,9.13-4.92,14.93-12.49,18.83-10.37,5.36-21.34,5.62-32.48,3-10.81-2.55-19.34-7.83-22.65-19.31a3.76,3.76,0,0,0-2.67-2.24c-6.77-.19-13.54-.1-20.55-.1a25.69,25.69,0,0,0,0,2.57c2.4,18.83,13.42,30.63,30.7,37,13.6,5,27.7,5.17,41.85,3,23.28-3.55,38.07-17,41.45-38.87,2.53-16.36-2.25-31.05-18-39.3-7.27-3.8-15.31-6.26-23.19-8.74-11-3.48-22.43-6-33.38-9.74-6.69-2.3-11.58-7.05-11.94-15-.4-8.86,3.77-14.91,11.16-19.08,7.09-4,14.85-4.46,22.76-4.15,10.75.41,24.11,6.29,27.49,19.26a4.52,4.52,0,0,0,3.25,2.66C-215.91,177.9-209.44,177.76-202.66,177.76Zm-419.21-38.83C-682.14,142-736.55,201.74-730.63,263.6-672.9,269.88-614.29,204.15-621.87,138.93Zm1038.76,81.9c-5.42.31-10.23.51-15,.87-13.05,1-26.25.68-38.7,6C339,238,340.4,268.32,354.8,280.82c16.6,14.41,45.48,11.83,59.14-5.35.83-1.05,1.79-2,2.7-3l1.21.44V288h21.2v-4.34q0-37.25,0-74.48c0-15.53-8.48-27.44-23.13-32.65-10.92-3.89-22.12-4.08-33.42-2.23-9.95,1.63-18.83,5.48-25.74,13.06A28.66,28.66,0,0,0,349,204.92c5.7,0,10.85-.17,16,.06,3.45.16,5.46-.75,7.59-3.89,2-2.92,5.64-5.2,9.05-6.55,7.46-2.95,15.35-2.75,23-.58,7,2,11.33,6.93,12.17,14.26C417.26,212.14,416.89,216.16,416.89,220.83ZM-47,204.91c6.76,0,13.21,0,19.66-.06a3.16,3.16,0,0,0,2.36-1.24c5.39-9.83,14.56-11,24.4-11,17.88.08,24.28,10.41,21.11,28.21-10,.6-20.13.67-30.13,2-8.13,1.06-16.48,2.61-24,5.71-22.8,9.39-21.2,38.86-8.55,51.1C-26.35,294.9,4.24,293.29,17.83,276c1-1.22,1.89-2.46,2.84-3.69l1.18.4v15.33H42.76a12.81,12.81,0,0,0,.41-2.18c0-26.64.34-53.29-.23-79.92-.29-13.23-7.51-22.91-19.7-28.25-13.11-5.73-26.86-5.89-40.51-2.54C-32.71,179-43.95,187.54-47,204.91Zm794.82-29H726v11.38c0,18.66.34,37.33-.24,56-.55,18-11.38,27-30.35,26.41-14-.39-21.19-9.54-21.31-26.93v-66.9H652.3a11.8,11.8,0,0,0-.32,1.76c0,25.32-.3,50.65.1,76,.34,21.49,13.6,35.32,34.95,36.68,15.76,1,29.44-3,37.24-18.51.27-.53,1.16-.76,2.68-1.7V288h20.91ZM620.57,204.57c-1.57-12.25-7.37-21.27-18.11-25.66a80,80,0,0,0-24-5.53c-12-.89-23.5,1.79-33.39,9.28-16.64,12.58-16.89,37.94.16,48.41,6.76,4.16,14.95,6.13,22.65,8.58,8.2,2.6,16.94,3.78,24.82,7.07,10,4.17,10.47,15.54,1.12,21.08a32.75,32.75,0,0,1-14.05,4.42c-10.79.7-21.11-.79-26.93-11.93a3.72,3.72,0,0,0-2.67-1.69c-6.62-.14-13.25-.07-20.31-.07,1.18,9.79,5.33,17.17,12.81,22.67,8.2,6,17.64,8.4,27.57,9,15.16.9,29.58-1.21,41.74-11.36,14.91-12.46,16.81-40.75-7.17-50.23a159.27,159.27,0,0,0-15.64-4.9c-8.93-2.52-18.21-4.11-26.77-7.5-9.85-3.91-10.4-14.24-1.82-20.49,12.21-8.89,32.14-4.38,39.08,8.86ZM322.21,252c-4.26,0-7.76.24-11.22,0-6.27-.53-11.65-.39-13.72,7.42-.67,2.51-3.62,4.77-6,6.41-14.4,9.79-34.83,4.87-42.25-10.79-7.35-15.51-7.34-31.63.15-47.19,5.06-10.51,14.38-15.14,25.72-14.8s20.51,5.05,25.06,16.43c.49,1.21,2.11,2.72,3.26,2.78,6.13.27,12.27.13,18.49.13A9.28,9.28,0,0,0,322,210c-1.92-10.49-6.5-19.47-14.87-26.32-9.19-7.51-20-10.35-31.56-10.53-19.41-.3-39.24,6.12-48.78,29.23A79.21,79.21,0,0,0,221.4,226c-1.32,16.77,1.28,33,12.17,46.64,16.65,20.84,53.94,24,74.41,6.69C316.19,272.4,320.68,263.47,322.21,252ZM-74,212.36a24.21,24.21,0,0,0,.16-2.49,12,12,0,0,0-.3-2.47c-3.71-14.73-12.36-25.21-26.69-30.65-8.86-3.36-18.06-4.09-27.46-3.17-19.15,1.9-33.09,11.11-40.83,29-5.15,11.89-5.73,24.37-5,37.14,1.61,28.86,19.21,48,47.86,50.47,14.29,1.26,27.93-1.41,39.16-11.29a38.33,38.33,0,0,0,13.4-26.84c-6.64,0-12.78-.15-18.9.14-1.16.05-2.4,1.69-3.31,2.83-2.75,3.46-4.71,7.92-8.12,10.41-11.71,8.5-34.42,8.27-43.09-11.27a54.18,54.18,0,0,1-.3-44.54c4.77-11.23,14.07-16.78,26.13-16.58,11.62.19,21,4.75,25.5,16.45.44,1.15,1.83,2.7,2.84,2.74C-86.74,212.49-80.45,212.36-74,212.36Zm216-16.62c0-6.27.17-12.41-.14-18.53-.06-1.2-1.88-3.2-3-3.31-15.55-1.58-30.83,2.54-37.41,18.11-.06.14-.56.1-1.54.27V175.8H78.78a12.9,12.9,0,0,0-.41,2.17q0,53.43-.08,106.86c0,3,1.28,3.68,3.92,3.59a97.87,97.87,0,0,1,12.47.05c4.82.47,6.15-1.2,6.11-6-.2-21.13-.32-42.27.23-63.39.31-12.12,9.45-21.66,21.51-23.17C128.71,195.1,135.06,195.74,142,195.74Zm27.19-20V288h21.47V175.72Zm10.47-47.21c-8.44,0-14.22,5.32-14.32,13.21s6.19,14,14.41,14c7.94,0,14.23-6,14.3-13.58C194.12,134,188.38,128.52,179.66,128.51Z" transform="translate(1202 80.29)"/><path class="cls-1" d="M-522.28,324.28c-85,51.47-76.42,174.67,14.72,215.16-3.17,8.4-6,17-9.62,25.3-14.65,33.89-34.84,64.3-59.13,92-10.92,12.43-24.15,21.83-40.81,25.44-15.52,3.37-30.33.69-45-4.67C-675,672.74-687.7,667-701,664.05c-20.59-4.57-40.89-1.36-60.51,6.55-11.06,4.45-22.21,9-33.7,11.95-22.66,5.88-41.88-1.92-58.55-17.21-19.81-18.19-35.25-39.92-49.16-62.69A339.12,339.12,0,0,1-948.79,476.1c-6-39.16-5.11-78.05,9.93-115.38,17.61-43.71,48.5-73.19,94.69-85.49,24.59-6.55,48.4-3.53,71.73,5.82,9.54,3.82,19.2,7.37,28.77,11.14,11.53,4.54,22.85,4.23,34.45-.2,16.27-6.2,32.5-12.72,49.21-17.49,46-13.15,104.81,3.64,135.54,46.52C-523.71,322.08-523,323.19-522.28,324.28Z" transform="translate(1202 80.29)"/><path class="cls-1" d="M548,597.9h47.69c3,20.15,14.78,34,33,42.25A94.79,94.79,0,0,0,650.91,647c20,3.59,39.88,2.53,58.5-6.5,16.8-8.14,28.19-20.65,28.32-40.52.09-13.48-6.05-23.89-17-31.56-12.66-8.84-27.19-12.89-41.85-16.72-21.34-5.58-42.85-10.65-63.9-17.17A89.32,89.32,0,0,1,573.41,508c-13.84-15.88-18.28-34.79-16.81-55.24,2.5-34.85,21.37-58.83,52.45-72.37,41.4-18,83.53-18.08,124.39,2.08C762.82,397,778.73,421.62,782,454.31a28.22,28.22,0,0,1-.15,3.76H735.35c-1-4-1.65-7.93-2.89-11.69-5.3-16.18-16.59-26.84-32.27-32.39-22.64-8-45.42-7.69-67.56,2.07-18.52,8.17-27.9,23.84-26.6,43.22.73,10.83,6.67,18.59,15.23,24.53,13.08,9.08,28.26,12.89,43.36,16.93,21.78,5.82,43.68,11.3,65.14,18.13A88.42,88.42,0,0,1,769.37,544c15.25,17,19.26,37.61,17.18,59.55-3.79,40-26.82,65.06-63.85,77.23-40,13.14-80.23,13.13-119.3-3.83-29.8-12.94-48.25-35.7-54.14-68C548.64,605.49,548.43,602,548,597.9Z" transform="translate(1202 80.29)"/><path class="cls-1" d="M-338.84,684.39c2.56-7.23,4.73-13.47,7-19.68q51.84-143.49,103.6-287c1.29-3.6,2.86-4.81,6.66-4.74q21.24.36,42.49,0c3.82-.06,5.37,1.23,6.64,4.76q51.63,143.57,103.5,287l7,19.39c-2.11.1-3.83.24-5.55.25-13.17,0-26.34-.23-39.49.14-4.66.13-6.63-1.35-8.07-5.73-8.13-24.74-16.63-49.37-24.83-74.09-1.05-3.15-2.34-4.41-5.86-4.4q-55,.21-110,0c-3.51,0-4.91,1.22-6,4.35-8.34,25-16.9,50-25.19,75-1.18,3.57-2.74,4.89-6.61,4.83C-308.3,684.24-323.1,684.39-338.84,684.39Zm138.68-259.46-1.37.15-46.22,136.15h93.87C-169.4,515.49-184.78,470.21-200.16,424.93Z" transform="translate(1202 80.29)"/><path class="cls-1" d="M13.79,647.92V759.36H-32.69V457.89h44.6v37.64c1.62-2,2.43-2.9,3.06-3.88,14.16-22,34.77-33.27,60.29-36,26.75-2.81,50.9,3.7,71.08,22.07,16,14.59,25.21,33.22,30,54.09,7.44,32.35,6.64,64.43-5.44,95.55s-33.83,52.14-67.53,57.75c-31.54,5.25-59.94-1.17-81.5-27-1.39-1.66-2.57-3.48-3.79-5.27s-2.27-3.48-3.4-5.22ZM133,576.17c0-18.58-1.84-31.67-7-44.11-9.06-21.73-24.67-35.52-48.69-37.14-25.36-1.71-44,10.05-54.47,32.71-13.39,29-13.23,58.75.42,87.69,9.78,20.75,27,32.08,50,32,23.86-.1,40.89-12.16,51.12-33.66A92.28,92.28,0,0,0,133,576.17Z" transform="translate(1202 80.29)"/><path class="cls-1" d="M263.23,646.47v113h-46V457.84H262v36.82c4.75-5.78,8.6-11.37,13.34-16.08,18.42-18.29,41.21-24.77,66.58-23.27,45,2.66,75.28,33.82,84.93,79.37,7,33,5.73,65.91-8,97.29-12.53,28.63-33.77,47.35-65.14,53.19-32.76,6.09-70.21-4-88.15-36.13A23,23,0,0,0,263.23,646.47ZM383,571.24c-.33-13.59-1.94-26.77-7.17-39.19-9-21.44-24.43-35.31-48.26-37.11-24.4-1.84-43.09,8.8-53.8,30.49-15.11,30.61-14.92,62.09.67,92.54,9.88,19.31,26.88,29.49,48.66,29.35,22.75-.14,39.47-11.18,50-31.46C380.37,601.79,382.49,586.59,383,571.24Z" transform="translate(1202 80.29)"/><path class="cls-1" d="M1542.81,582.84h-159.4c-3,21.46,8.07,52.56,37.13,63,24.74,8.86,64.11,3.46,75.89-27.88h43.75a70.56,70.56,0,0,1-18.43,38.21c-13.77,14.91-31.07,23.65-50.71,27.9-22.5,4.88-45,4.54-66.91-2.61-28.27-9.21-48.4-28-58.85-55.65-14-37.24-13.94-75,1.64-111.8,14.72-34.75,41.89-54,79.4-58.45,24.24-2.87,47.52.31,68.8,12.89,25.79,15.24,39.08,39.08,44.88,67.69C1543.09,551.34,1543.42,566.75,1542.81,582.84Zm-159.52-33.19h112.38c1.21-23.24-14.49-56.78-54.29-57.28C1403.93,491.9,1383.6,522.57,1383.29,549.65Z" transform="translate(1202 80.29)"/><path class="cls-1" d="M954.62,570.93c1.17-26.81,6.34-52.06,21.78-74.35,16.74-24.16,40.44-36.9,69.13-40.82a124.55,124.55,0,0,1,53.31,3.83c28.08,8.47,48.7,25.93,60.27,52.78,16.57,38.48,16.76,77.79.42,116.25-14.38,33.85-41.49,52.23-77.69,57.2-20.51,2.82-40.81,1.71-60.36-5.63-33.63-12.64-53.16-37.74-61.34-71.93C957.23,596.08,956.4,583.39,954.62,570.93Zm48.34.57c.4,15,2.12,30.43,9,44.88,9.27,19.56,24.6,30.7,46.24,32.2,23.57,1.63,43.21-6.38,54.17-28,15.42-30.43,15.3-62.29,2.78-93.61C1105.79,503.57,1087,492.6,1062,493c-24.21.41-41.18,12.33-50.95,34.43C1005,541.24,1003.28,555.88,1003,571.5Z" transform="translate(1202 80.29)"/><path class="cls-1" d="M887.68,404v53.31h43v9.78c0,7.17-.24,14.35.09,21.5.21,4.44-.93,6.08-5.72,5.94-12.14-.36-24.31-.12-37.09-.12-.1,2-.26,3.73-.27,5.48q0,60.24,0,120.48a41.81,41.81,0,0,0,1.09,9.86c2.72,11,10.58,17.21,21.91,17.46,6.28.15,12.58,0,19.18,0v36c-4,.48-8,1.1-12.08,1.45-13.49,1.15-26.93.89-40.17-2.31-20.92-5-33-18.41-35.59-39.8a161.32,161.32,0,0,1-1.21-19.41c-.11-40.82-.06-81.65-.06-122.48v-6.66H808.06v-37c9.21,0,18.17-.29,27.1.11,4.81.22,5.79-1.5,5.73-5.93-.25-15.8-.1-31.6-.1-47.71Z" transform="translate(1202 80.29)"/><path class="cls-1" d="M1325,456.78v42.29c-7.66-.46-15.07-1.25-22.48-1.29-23.79-.09-42.32,16.22-45.4,39.85a120.36,120.36,0,0,0-1,15.41q-.12,62.48,0,125v6.38H1220.6c-11.27,0-11.27,0-11.27-11.17V457.93h44.59v36.92c6.77-17.48,17.65-30.57,35.64-36.66C1301.13,454.27,1312.93,454.06,1325,456.78Z" transform="translate(1202 80.29)"/><path class="cls-1" d="M-202.66,177.76c-6.78,0-13.25.14-19.71-.12a4.52,4.52,0,0,1-3.25-2.66c-3.38-13-16.74-18.85-27.49-19.26-7.91-.31-15.67.16-22.76,4.15C-283.26,164-287.43,170.09-287,179c.36,8,5.25,12.74,11.94,15,10.95,3.75,22.33,6.26,33.38,9.74,7.88,2.48,15.92,4.94,23.19,8.74,15.77,8.25,20.55,22.94,18,39.3-3.38,21.88-18.17,35.32-41.45,38.87-14.15,2.16-28.25,2-41.85-3-17.28-6.36-28.3-18.16-30.7-37a25.69,25.69,0,0,1,0-2.57c7,0,13.78-.09,20.55.1a3.76,3.76,0,0,1,2.67,2.24c3.31,11.48,11.84,16.76,22.65,19.31,11.14,2.63,22.11,2.37,32.48-3,7.57-3.9,12.6-9.7,12.49-18.83-.11-9-5.42-14.46-13-17.09-11.41-3.95-23.22-6.7-34.82-10.1a151.51,151.51,0,0,1-16-5.34c-30.47-12.83-27.55-50.72-10.62-66.24,21.1-19.35,63.8-18.77,83.85,1.62C-207.07,158.13-203.36,166.51-202.66,177.76Z" transform="translate(1202 80.29)"/><path class="cls-1" d="M-621.87,138.93c7.58,65.22-51,131-108.76,124.67C-736.55,201.74-682.14,142-621.87,138.93Z" transform="translate(1202 80.29)"/><path class="cls-1" d="M416.89,220.83c0-4.67.37-8.69-.08-12.61C416,200.89,411.68,196,404.64,194c-7.65-2.17-15.54-2.37-23,.58-3.41,1.35-7.08,3.63-9.05,6.55-2.13,3.14-4.14,4-7.59,3.89-5.14-.23-10.29-.06-16-.06a28.66,28.66,0,0,1,7.74-17.56c6.91-7.58,15.79-11.43,25.74-13.06,11.3-1.85,22.5-1.66,33.42,2.23,14.65,5.21,23.1,17.12,23.13,32.65q.06,37.24,0,74.48V288h-21.2V272.91l-1.21-.44c-.91,1-1.87,1.95-2.7,3-13.66,17.18-42.54,19.76-59.14,5.35-14.4-12.5-15.84-42.85,8.36-53.14,12.45-5.3,25.65-5,38.7-6C406.66,221.34,411.47,221.14,416.89,220.83Zm-.49,16.94c-3.31,0-6.31-.23-9.26,0-9.56.91-19.19,1.48-28.61,3.2-7.41,1.36-11.34,6.7-11.52,13.1-.22,7.69,3.3,12.84,10.64,15.56C399.75,277.89,420.12,261.25,416.4,237.77Z" transform="translate(1202 80.29)"/><path class="cls-1" d="M-47,204.91c3-17.37,14.25-25.93,29.69-29.72,13.65-3.35,27.4-3.19,40.51,2.54,12.19,5.34,19.41,15,19.7,28.25.57,26.63.22,53.28.23,79.92a12.81,12.81,0,0,1-.41,2.18H21.85V272.75l-1.18-.4c-1,1.23-1.88,2.47-2.84,3.69-13.59,17.25-44.18,18.86-59.94,3.61-12.65-12.24-14.25-41.71,8.55-51.1,7.52-3.1,15.87-4.65,24-5.71,10-1.32,20.16-1.39,30.13-2,3.17-17.8-3.23-28.13-21.11-28.21-9.84,0-19,1.14-24.4,11a3.16,3.16,0,0,1-2.36,1.24C-33.75,205-40.2,204.91-47,204.91Zm67.87,32.38c-10.33.69-20.4,1.22-30.43,2.12a39.71,39.71,0,0,0-10.1,2.43c-5.83,2.17-9.13,6.56-9.28,12.88s2.65,11.09,8.23,13.71c11.19,5.26,22.09,3.81,32.09-3.06C21.17,258.66,22.22,248.64,20.91,237.29Z" transform="translate(1202 80.29)"/><path class="cls-1" d="M747.86,175.93V288H727V270.06c-1.52.94-2.41,1.17-2.68,1.7-7.8,15.48-21.48,19.51-37.24,18.51-21.35-1.36-34.61-15.19-34.95-36.68-.4-25.32-.11-50.65-.1-76a11.8,11.8,0,0,1,.32-1.76h21.75v66.9c.12,17.39,7.35,26.54,21.31,26.93,19,.54,29.8-8.46,30.35-26.41.58-18.64.2-37.31.24-56V175.93Z" transform="translate(1202 80.29)"/><path class="cls-1" d="M620.57,204.57H599.66c-6.94-13.24-26.87-17.75-39.08-8.86-8.58,6.25-8,16.58,1.82,20.49,8.56,3.39,17.84,5,26.77,7.5a159.27,159.27,0,0,1,15.64,4.9c24,9.48,22.08,37.77,7.17,50.23-12.16,10.15-26.58,12.26-41.74,11.36-9.93-.59-19.37-3-27.57-9-7.48-5.5-11.63-12.88-12.81-22.67,7.06,0,13.69-.07,20.31.07a3.72,3.72,0,0,1,2.67,1.69c5.82,11.14,16.14,12.63,26.93,11.93a32.75,32.75,0,0,0,14.05-4.42c9.35-5.54,8.86-16.91-1.12-21.08-7.88-3.29-16.62-4.47-24.82-7.07-7.7-2.45-15.89-4.42-22.65-8.58-17.05-10.47-16.8-35.83-.16-48.41,9.89-7.49,21.42-10.17,33.39-9.28a80,80,0,0,1,24,5.53C613.2,183.3,619,192.32,620.57,204.57Z" transform="translate(1202 80.29)"/><path class="cls-1" d="M322.21,252c-1.53,11.43-6,20.36-14.23,27.33-20.47,17.35-57.76,14.15-74.41-6.69-10.89-13.63-13.49-29.87-12.17-46.64a79.21,79.21,0,0,1,5.36-23.63c9.54-23.11,29.37-29.53,48.78-29.23,11.52.18,22.37,3,31.56,10.53,8.37,6.85,12.95,15.83,14.87,26.32a9.28,9.28,0,0,1-.3,2.35c-6.22,0-12.36.14-18.49-.13-1.15-.06-2.77-1.57-3.26-2.78-4.55-11.38-13.63-16.08-25.06-16.43s-20.66,4.29-25.72,14.8c-7.49,15.56-7.5,31.68-.15,47.19,7.42,15.66,27.85,20.58,42.25,10.79,2.41-1.64,5.36-3.9,6-6.41,2.07-7.81,7.45-8,13.72-7.42C314.45,252.28,318,252,322.21,252Z" transform="translate(1202 80.29)"/><path class="cls-1" d="M-74,212.36c-6.41,0-12.7.13-19-.13-1,0-2.4-1.59-2.84-2.74-4.54-11.7-13.88-16.26-25.5-16.45-12.06-.2-21.36,5.35-26.13,16.58a54.18,54.18,0,0,0,.3,44.54c8.67,19.54,31.38,19.77,43.09,11.27,3.41-2.49,5.37-6.95,8.12-10.41.91-1.14,2.15-2.78,3.31-2.83,6.12-.29,12.26-.14,18.9-.14a38.33,38.33,0,0,1-13.4,26.84c-11.23,9.88-24.87,12.55-39.16,11.29-28.65-2.52-46.25-21.61-47.86-50.47-.71-12.77-.13-25.25,5-37.14,7.74-17.88,21.68-27.09,40.83-29,9.4-.92,18.6-.19,27.46,3.17,14.33,5.44,23,15.92,26.69,30.65a12,12,0,0,1,.3,2.47A24.21,24.21,0,0,1-74,212.36Z" transform="translate(1202 80.29)"/><path class="cls-1" d="M142,195.74c-6.94,0-13.29-.64-19.47.13-12.06,1.51-21.2,11-21.51,23.17-.55,21.12-.43,42.26-.23,63.39,0,4.84-1.29,6.51-6.11,6a97.87,97.87,0,0,0-12.47-.05c-2.64.09-3.93-.61-3.92-3.59q.1-53.43.08-106.86a12.9,12.9,0,0,1,.41-2.17H99.87v16.48c1-.17,1.48-.13,1.54-.27,6.58-15.57,21.86-19.69,37.41-18.11,1.16.11,3,2.11,3,3.31C142.17,183.33,142,189.47,142,195.74Z" transform="translate(1202 80.29)"/><path class="cls-1" d="M169.19,175.72h21.47V288H169.19Z" transform="translate(1202 80.29)"/><path class="cls-1" d="M179.66,128.51c8.72,0,14.46,5.45,14.39,13.62-.07,7.59-6.36,13.56-14.3,13.58-8.22,0-14.52-6.09-14.41-14S171.22,128.49,179.66,128.51Z" transform="translate(1202 80.29)"/><path d="M-200.16,424.93c15.38,45.28,30.76,90.56,46.28,136.3h-93.87l46.22-136.15Z" transform="translate(1202 80.29)"/><path d="M133,576.17a92.28,92.28,0,0,1-8.63,37.47c-10.23,21.5-27.26,33.56-51.12,33.66-23,.1-40.25-11.23-50-32C9.56,586.38,9.4,556.6,22.79,527.63,33.26,505,51.9,493.21,77.26,494.92c24,1.62,39.63,15.41,48.69,37.14C131.15,544.5,133,557.59,133,576.17Z" transform="translate(1202 80.29)"/><path d="M383,571.24c-.51,15.35-2.63,30.55-9.92,44.62-10.51,20.28-27.23,31.32-50,31.46-21.78.14-38.78-10-48.66-29.35-15.59-30.45-15.78-61.93-.67-92.54,10.71-21.69,29.4-32.33,53.8-30.49,23.83,1.8,39.22,15.67,48.26,37.11C381.06,544.47,382.67,557.65,383,571.24Z" transform="translate(1202 80.29)"/><path d="M1383.29,549.65c.31-27.08,20.64-57.75,58.09-57.28,39.8.5,55.5,34,54.29,57.28Z" transform="translate(1202 80.29)"/><path d="M1003,571.5c.32-15.62,2-30.26,8.11-44,9.77-22.1,26.74-34,50.95-34.43,25-.42,43.77,10.55,53.1,33.92,12.52,31.32,12.64,63.18-2.78,93.61-11,21.65-30.6,29.66-54.17,28-21.64-1.5-37-12.64-46.24-32.2C1005.08,601.93,1003.36,586.49,1003,571.5Z" transform="translate(1202 80.29)"/><path d="M416.4,237.77c3.72,23.48-16.65,40.12-38.75,31.91-7.34-2.72-10.86-7.87-10.64-15.56.18-6.4,4.11-11.74,11.52-13.1,9.42-1.72,19.05-2.29,28.61-3.2C410.09,237.54,413.09,237.77,416.4,237.77Z" transform="translate(1202 80.29)"/><path d="M20.91,237.29c1.31,11.35.26,21.37-9.49,28.08-10,6.87-20.9,8.32-32.09,3.06-5.58-2.62-8.38-7.49-8.23-13.71s3.45-10.71,9.28-12.88a39.71,39.71,0,0,1,10.1-2.43C.51,238.51,10.58,238,20.91,237.29Z" transform="translate(1202 80.29)"/></svg>