<svg width="929" height="618" viewBox="0 0 929 618" fill="none" xmlns="http://www.w3.org/2000/svg">
<path d="M852.546 1.89455C893.353 1.89455 926.434 34.9751 926.434 75.7819L926.434 541.841C926.434 582.648 893.353 615.728 852.546 615.728L75.7813 615.728C34.9744 615.728 1.89383 582.648 1.89384 541.841L1.89386 75.7819C1.89386 34.975 34.9744 1.89451 75.7812 1.89451L852.546 1.89455Z" fill="white" stroke="#09A16E" stroke-width="3.7891"/>
<path d="M379.974 302.846C379.656 301.873 379.238 301.002 378.718 300.231C378.207 299.452 377.596 298.787 376.883 298.238C376.18 297.689 375.381 297.271 374.486 296.982C373.59 296.693 372.608 296.548 371.539 296.548C369.787 296.548 368.193 297.001 366.759 297.906C365.324 298.811 364.183 300.145 363.336 301.907C362.488 303.669 362.065 305.831 362.065 308.392C362.065 310.953 362.493 313.115 363.35 314.877C364.207 316.639 365.367 317.972 366.831 318.878C368.295 319.783 369.941 320.235 371.77 320.235C373.465 320.235 374.958 319.874 376.248 319.152C377.548 318.42 378.559 317.39 379.281 316.061C380.013 314.723 380.379 313.148 380.379 311.338L381.476 311.569L372.579 311.569V308.392L383.845 308.392V311.569C383.845 314.005 383.325 316.124 382.285 317.924C381.255 319.725 379.83 321.121 378.01 322.113C376.2 323.095 374.12 323.586 371.77 323.586C369.151 323.586 366.85 322.97 364.867 321.737C362.893 320.505 361.352 318.752 360.245 316.48C359.147 314.208 358.598 311.512 358.598 308.392C358.598 306.052 358.911 303.948 359.537 302.08C360.173 300.203 361.068 298.604 362.224 297.285C363.379 295.966 364.746 294.955 366.325 294.252C367.905 293.549 369.643 293.198 371.539 293.198C373.099 293.198 374.553 293.434 375.901 293.905C377.259 294.368 378.467 295.027 379.526 295.884C380.595 296.731 381.486 297.747 382.198 298.932C382.911 300.106 383.402 301.411 383.672 302.846H379.974ZM403.499 314.111L403.499 300.997L406.907 300.997L406.907 323.182L403.499 323.182V319.426H403.267C402.747 320.553 401.939 321.511 400.841 322.301C399.743 323.081 398.357 323.471 396.681 323.471C395.295 323.471 394.062 323.167 392.984 322.561C391.905 321.944 391.058 321.02 390.442 319.787C389.826 318.545 389.518 316.981 389.518 315.093L389.518 300.997H392.926L392.926 314.862C392.926 316.48 393.379 317.77 394.284 318.733C395.199 319.696 396.364 320.177 397.779 320.177C398.626 320.177 399.488 319.961 400.364 319.528C401.25 319.094 401.992 318.43 402.589 317.534C403.195 316.639 403.499 315.498 403.499 314.111ZM413.15 323.182L413.15 300.997H416.559L416.559 323.182H413.15ZM414.883 297.299C414.219 297.299 413.646 297.073 413.165 296.621C412.693 296.168 412.457 295.624 412.457 294.989C412.457 294.353 412.693 293.809 413.165 293.357C413.646 292.904 414.219 292.678 414.883 292.678C415.548 292.678 416.116 292.904 416.588 293.357C417.069 293.809 417.31 294.353 417.31 294.989C417.31 295.624 417.069 296.168 416.588 296.621C416.116 297.073 415.548 297.299 414.883 297.299ZM431.179 323.644C429.33 323.644 427.698 323.177 426.283 322.243C424.867 321.299 423.76 319.97 422.961 318.257C422.161 316.533 421.762 314.496 421.762 312.147C421.762 309.817 422.161 307.795 422.961 306.081C423.76 304.367 424.872 303.043 426.297 302.109C427.722 301.175 429.369 300.708 431.237 300.708C432.681 300.708 433.822 300.949 434.66 301.43C435.507 301.902 436.152 302.441 436.595 303.048C437.048 303.645 437.399 304.136 437.649 304.521H437.938V293.602L441.347 293.602L441.347 323.182L438.054 323.182V319.773H437.649C437.399 320.177 437.043 320.688 436.581 321.304C436.118 321.911 435.459 322.455 434.602 322.936C433.745 323.408 432.604 323.644 431.179 323.644ZM431.641 320.582C433.008 320.582 434.164 320.226 435.107 319.513C436.051 318.791 436.768 317.794 437.259 316.523C437.75 315.243 437.996 313.765 437.996 312.089C437.996 310.433 437.755 308.984 437.274 307.742C436.792 306.49 436.08 305.518 435.136 304.824C434.193 304.121 433.028 303.77 431.641 303.77C430.197 303.77 428.993 304.141 428.03 304.882C427.077 305.614 426.36 306.611 425.878 307.872C425.406 309.124 425.17 310.529 425.17 312.089C425.17 313.668 425.411 315.103 425.893 316.393C426.384 317.674 427.106 318.695 428.059 319.455C429.022 320.206 430.216 320.582 431.641 320.582ZM457.364 323.644C455.227 323.644 453.383 323.172 451.833 322.228C450.292 321.275 449.103 319.946 448.265 318.242C447.437 316.528 447.023 314.535 447.023 312.263C447.023 309.99 447.437 307.987 448.265 306.254C449.103 304.511 450.268 303.154 451.76 302.181C453.262 301.199 455.015 300.708 457.018 300.708C458.173 300.708 459.314 300.901 460.441 301.286C461.567 301.671 462.593 302.297 463.517 303.163C464.441 304.02 465.178 305.157 465.727 306.572C466.276 307.987 466.55 309.73 466.55 311.8V313.245H449.449V310.298H463.084C463.084 309.047 462.833 307.93 462.333 306.948C461.842 305.965 461.139 305.19 460.224 304.622C459.319 304.054 458.25 303.77 457.018 303.77C455.66 303.77 454.485 304.107 453.494 304.781C452.511 305.445 451.756 306.312 451.226 307.381C450.696 308.45 450.432 309.595 450.432 310.818V312.783C450.432 314.458 450.72 315.878 451.298 317.043C451.886 318.199 452.699 319.08 453.739 319.686C454.779 320.283 455.987 320.582 457.364 320.582C458.26 320.582 459.069 320.457 459.791 320.206C460.523 319.946 461.153 319.561 461.683 319.051C462.212 318.531 462.622 317.886 462.91 317.116L466.204 318.04C465.857 319.157 465.274 320.139 464.456 320.986C463.637 321.824 462.626 322.479 461.423 322.951C460.219 323.413 458.866 323.644 457.364 323.644ZM475.144 293.602L475.144 323.182H471.735L471.735 293.602H475.144ZM481.387 323.182L481.387 300.997H484.795L484.795 323.182H481.387ZM483.12 297.299C482.456 297.299 481.883 297.073 481.401 296.621C480.93 296.168 480.694 295.624 480.694 294.989C480.694 294.353 480.93 293.809 481.401 293.357C481.883 292.904 482.456 292.678 483.12 292.678C483.784 292.678 484.353 292.904 484.824 293.357C485.306 293.809 485.547 294.353 485.547 294.989C485.547 295.624 485.306 296.168 484.824 296.621C484.353 297.073 483.784 297.299 483.12 297.299ZM494.447 309.836V323.182H491.039L491.039 300.997H494.332V304.463H494.62C495.14 303.337 495.93 302.432 496.989 301.748C498.048 301.055 499.416 300.708 501.091 300.708C502.593 300.708 503.907 301.016 505.034 301.632C506.161 302.239 507.037 303.163 507.663 304.406C508.288 305.638 508.601 307.198 508.601 309.085V323.182L505.193 323.182V309.316C505.193 307.573 504.74 306.216 503.835 305.243C502.93 304.261 501.688 303.77 500.109 303.77C499.021 303.77 498.048 304.006 497.191 304.478C496.344 304.95 495.675 305.638 495.184 306.543C494.693 307.448 494.447 308.546 494.447 309.836ZM524.131 323.644C521.994 323.644 520.15 323.172 518.6 322.228C517.059 321.275 515.87 319.946 515.032 318.242C514.204 316.528 513.79 314.535 513.79 312.263C513.79 309.99 514.204 307.987 515.032 306.254C515.87 304.511 517.035 303.154 518.527 302.181C520.03 301.199 521.782 300.708 523.785 300.708C524.94 300.708 526.081 300.901 527.208 301.286C528.334 301.671 529.36 302.297 530.284 303.163C531.209 304.02 531.945 305.157 532.494 306.572C533.043 307.987 533.317 309.73 533.317 311.8V313.245H516.217V310.298H529.851C529.851 309.047 529.601 307.93 529.1 306.948C528.609 305.965 527.906 305.19 526.991 304.622C526.086 304.054 525.017 303.77 523.785 303.77C522.427 303.77 521.252 304.107 520.261 304.781C519.279 305.445 518.523 306.312 517.993 307.381C517.464 308.45 517.199 309.595 517.199 310.818V312.783C517.199 314.458 517.488 315.878 518.065 317.043C518.653 318.199 519.466 319.08 520.506 319.686C521.546 320.283 522.755 320.582 524.131 320.582C525.027 320.582 525.836 320.457 526.558 320.206C527.29 319.946 527.92 319.561 528.45 319.051C528.98 318.531 529.389 317.886 529.678 317.116L532.971 318.04C532.624 319.157 532.041 320.139 531.223 320.986C530.405 321.824 529.394 322.479 528.19 322.951C526.986 323.413 525.634 323.644 524.131 323.644ZM560.283 293.602V323.182H556.701V297.357H556.527L549.306 302.152V298.513L556.701 293.602H560.283Z" fill="#09A16E"/>
</svg>
