<svg width="3000" height="1003" viewBox="0 0 3000 1003" fill="none" xmlns="http://www.w3.org/2000/svg">
<path d="M2889.06 1003H110.94C50.1363 1003 0 946.431 0 877.424V125.174C0 56.5692 50.1363 0 110.94 0H2888.7C2949.86 0 2999.64 56.5692 2999.64 125.174V877.424C3000 946.431 2950.22 1003 2889.06 1003Z" fill="black"/>
<path d="M2889.4 20.06C2940.97 20.06 2982.57 67.4016 2982.57 125.576V877.826C2982.57 936 2940.61 983.341 2889.4 983.341H110.953C59.7439 982.94 17.7809 935.598 17.7809 877.826V125.576C17.7809 67.4016 59.7439 20.06 110.953 20.06H2889.4ZM2889.4 0H110.953C50.1422 0 0 56.5692 0 125.576V877.826C0 946.431 50.1422 1003 110.953 1003H2889.05C2950.21 1003 3000 946.431 3000 877.826V125.576C3000.35 56.5692 2950.57 0 2889.4 0Z" fill="white"/>
<path d="M1514.05 540.26C1461.78 540.26 1419.11 580.087 1419.11 634.85C1419.11 689.257 1461.78 729.439 1514.05 729.439C1566.31 729.439 1608.98 689.257 1608.98 634.85C1608.98 580.087 1566.31 540.26 1514.05 540.26ZM1514.05 692.101C1485.24 692.101 1460.71 668.632 1460.71 634.85C1460.71 600.712 1485.24 577.598 1514.05 577.598C1542.85 577.598 1567.38 600.712 1567.38 634.85C1567.38 668.632 1542.85 692.101 1514.05 692.101ZM1307.1 540.26C1254.83 540.26 1212.16 580.087 1212.16 634.85C1212.16 689.257 1254.83 729.439 1307.1 729.439C1359.37 729.439 1402.04 689.257 1402.04 634.85C1402.04 580.087 1359.37 540.26 1307.1 540.26ZM1307.1 692.101C1278.3 692.101 1253.76 668.632 1253.76 634.85C1253.76 600.712 1278.3 577.598 1307.1 577.598C1335.9 577.598 1360.44 600.712 1360.44 634.85C1360.44 668.632 1335.9 692.101 1307.1 692.101ZM1061.04 569.419V609.602H1157.05C1154.2 632.005 1146.73 648.718 1135.36 660.097C1121.49 673.966 1099.44 689.612 1061.4 689.612C1002.37 689.612 956.146 641.962 956.146 582.932C956.146 523.903 1002.37 476.252 1061.4 476.252C1093.4 476.252 1116.51 488.698 1133.58 505.056L1162.02 476.608C1138.2 453.849 1106.2 436.069 1061.4 436.069C980.325 436.069 912.41 501.855 912.41 582.932C912.41 664.009 980.325 729.795 1061.4 729.795C1105.13 729.795 1137.85 715.571 1163.8 688.545C1190.47 661.875 1198.65 624.893 1198.65 594.667C1198.65 585.421 1197.94 576.887 1196.52 569.775H1061.04V569.419ZM2068.03 600.712C2060.21 579.732 2036.03 540.616 1986.96 540.616C1938.25 540.616 1897.71 579.021 1897.71 635.205C1897.71 688.19 1937.89 729.795 1991.58 729.795C2034.96 729.795 2059.86 703.125 2070.52 687.834L2038.17 666.498C2027.5 682.145 2012.92 692.457 1991.58 692.457C1970.61 692.457 1955.32 682.856 1945.72 663.653L2071.95 611.38L2068.03 600.712ZM1938.96 632.005C1937.89 595.378 1967.41 576.887 1988.38 576.887C2004.74 576.887 2018.96 585.066 2023.59 596.801L1938.96 632.005ZM1836.2 723.75H1877.8V446.026H1836.2V723.75ZM1768.28 561.596H1766.86C1757.62 550.573 1739.48 540.616 1717.08 540.616C1669.79 540.616 1626.41 582.221 1626.41 635.561C1626.41 688.545 1669.79 729.795 1717.08 729.795C1739.48 729.795 1757.62 719.838 1766.86 708.459H1768.28V721.972C1768.28 758.243 1749.08 777.445 1717.79 777.445C1692.54 777.445 1676.54 759.31 1670.14 743.663L1633.87 758.599C1644.19 783.491 1671.92 814.428 1717.79 814.428C1766.5 814.428 1807.75 785.624 1807.75 715.927V546.305H1768.28V561.596ZM1720.64 692.101C1691.83 692.101 1668.01 668.276 1668.01 635.205C1668.01 601.779 1691.83 577.598 1720.64 577.598C1749.08 577.598 1771.13 601.779 1771.13 635.205C1771.13 668.276 1749.08 692.101 1720.64 692.101ZM2262.53 446.026H2163.33V723.75H2204.58V618.492H2262.53C2308.4 618.492 2353.56 585.066 2353.56 532.081C2353.56 479.097 2308.4 446.026 2262.53 446.026ZM2263.6 579.732H2204.58V484.431H2263.6C2294.54 484.431 2312.31 510.034 2312.31 532.081C2312.31 553.773 2294.54 579.732 2263.6 579.732ZM2519.97 539.905C2490.1 539.905 2458.81 553.062 2446.01 582.577L2482.99 597.867C2490.81 582.577 2505.39 577.598 2521.04 577.598C2542.37 577.598 2564.42 590.4 2564.77 613.514V616.359C2557.31 612.091 2541.31 605.691 2521.39 605.691C2481.57 605.691 2441.39 627.382 2441.39 668.276C2441.39 705.614 2473.75 729.439 2510.37 729.439C2538.11 729.439 2553.75 716.993 2563.35 702.414H2564.77V723.75H2604.95V617.07C2604.24 567.286 2567.26 539.905 2519.97 539.905ZM2514.64 692.101C2501.13 692.101 2482.28 685.345 2482.28 668.632C2482.28 647.296 2505.75 639.117 2526.37 639.117C2544.51 639.117 2553.04 643.029 2564.42 648.363C2560.86 673.966 2538.82 692.101 2514.64 692.101ZM2750.03 545.95L2702.38 666.498H2700.96L2651.53 545.95H2606.73L2680.69 714.149L2638.38 807.671H2681.76L2795.9 545.594H2750.03V545.95ZM2376.32 723.75H2417.92V446.026H2376.32V723.75Z" fill="white"/>
<path d="M231.836 224.487C225.436 231.243 221.524 241.911 221.524 255.78V747.219C221.524 761.087 225.436 771.755 231.836 778.512L233.614 780.29L508.83 505.055V501.499V498.299L233.614 223.064L231.836 224.487Z" fill="url(#paint0_linear_2840_4675)"/>
<path d="M600.569 596.445L508.83 504.7V501.5V498.299L600.569 406.555L602.702 407.621L711.509 469.496C742.444 487.276 742.444 516.079 711.509 533.504L602.702 595.378L600.569 596.445Z" fill="url(#paint1_linear_2840_4675)"/>
<path d="M602.702 595.378L508.83 501.5L231.836 778.512C242.148 789.18 258.86 790.603 278.061 779.935L602.702 595.378Z" fill="url(#paint2_linear_2840_4675)"/>
<path d="M602.702 407.622L278.061 223.065C258.86 212.397 242.148 213.464 231.836 224.488L508.83 501.5L602.702 407.622Z" fill="url(#paint3_linear_2840_4675)"/>
<path opacity="0.2" d="M600.569 593.244L278.061 776.378C259.926 786.691 243.926 785.979 233.614 776.734L231.836 778.512L233.614 780.29C243.926 789.535 259.926 790.247 278.061 779.934L602.702 595.378L600.569 593.244Z" fill="black"/>
<path opacity="0.12" d="M231.836 775.311C225.436 768.555 221.524 757.887 221.524 744.019V747.219C221.524 761.087 225.436 771.755 231.836 778.512L233.614 776.734L231.836 775.311Z" fill="black"/>
<path opacity="0.12" d="M711.509 530.304L600.569 593.245L602.702 595.378L711.509 533.504C727.154 524.614 734.977 512.879 734.977 501.5C733.555 512.168 725.732 522.48 711.509 530.304Z" fill="black"/>
<path opacity="0.25" d="M278.061 226.265L711.509 472.341C725.732 480.164 733.555 490.476 734.977 501.144C734.977 489.409 727.154 478.03 711.509 469.14L278.061 223.065C247.126 205.285 221.524 220.22 221.524 255.78V258.981C221.524 223.421 247.126 208.841 278.061 226.265Z" fill="white"/>
<path d="M957.923 348.236H914.898V210.264H957.923C978.902 210.264 995.97 216.664 1008.77 229.466C1021.57 242.268 1027.97 258.981 1027.97 279.25C1027.97 299.519 1021.57 316.232 1008.77 329.034C995.97 341.836 978.902 348.236 957.923 348.236ZM936.589 327.256H957.923C972.502 327.256 984.591 322.989 993.125 314.81C1001.66 306.631 1005.93 294.541 1005.93 279.25C1005.93 264.315 1001.66 252.224 993.125 243.69C984.591 235.156 972.857 230.888 957.923 230.888H936.589V327.256Z" fill="white"/>
<path d="M1068.86 348.236H1047.17V210.264H1068.86V348.236Z" fill="white"/>
<path d="M1134.64 351.081C1124.69 351.081 1114.73 347.881 1105.13 341.125C1095.53 334.368 1089.13 325.123 1085.93 313.032L1085.58 311.254L1105.49 303.075L1106.2 305.565C1107.98 312.321 1111.53 318.366 1116.87 322.989C1122.2 327.612 1128.24 330.101 1135 330.101C1142.11 330.101 1147.8 328.323 1152.78 324.767C1157.4 321.211 1159.89 316.588 1159.89 310.543C1159.89 303.787 1157.76 298.808 1152.78 295.252C1147.8 291.341 1139.62 287.785 1128.6 284.229C1116.51 280.317 1107.27 275.339 1100.87 269.293C1094.46 262.893 1090.91 254.714 1090.91 245.113C1090.91 234.8 1094.82 225.91 1103 218.443C1110.82 210.975 1121.49 207.063 1134.29 207.063C1146.02 207.063 1155.62 209.908 1163.09 215.953C1170.56 221.999 1175.54 228.399 1177.67 235.511L1178.38 237.289L1158.47 245.468L1157.76 242.979C1156.69 239.067 1154.2 235.511 1150.29 232.311C1146.38 229.111 1141.05 227.333 1134.64 227.333C1128.6 227.333 1123.27 229.111 1119.35 232.311C1115.09 235.511 1113.31 239.423 1113.31 244.401C1113.31 248.669 1115.09 252.225 1119 255.069C1123.27 258.27 1129.31 261.115 1137.13 263.959C1143.89 266.093 1149.22 268.227 1153.85 270.36C1158.47 272.494 1163.09 274.983 1167.71 278.539C1172.34 282.095 1176.25 286.362 1178.74 291.696C1181.23 297.03 1182.29 303.075 1182.29 309.832C1182.29 316.588 1180.87 322.633 1178.03 328.323C1175.18 333.657 1171.27 337.924 1166.65 341.125C1162.02 344.325 1157.05 346.459 1151.71 348.237C1145.67 350.37 1140.33 351.081 1134.64 351.081Z" fill="white"/>
<path d="M1223.18 348.236H1201.49V210.264H1249.14C1260.87 210.264 1271.19 214.175 1280.08 221.998C1288.61 229.822 1293.23 240.134 1293.23 252.224C1293.23 264.315 1288.97 274.272 1280.08 282.095C1271.54 289.918 1261.23 293.83 1249.14 293.83H1223.18V348.236ZM1223.18 273.205H1249.5C1256.25 273.205 1261.23 271.071 1265.14 266.804C1269.05 262.181 1271.19 257.558 1271.19 252.224C1271.19 246.89 1269.41 242.268 1265.14 237.645C1261.23 233.378 1256.25 231.244 1249.5 231.244H1223.18V273.205Z" fill="white"/>
<path d="M1372.88 351.081C1352.97 351.081 1335.9 343.969 1322.39 330.101C1308.88 316.233 1302.12 299.164 1302.12 279.25C1302.12 259.337 1308.88 241.912 1322.39 228.399C1335.9 214.531 1352.97 207.419 1372.88 207.419C1392.79 207.419 1409.86 214.531 1423.37 228.399C1436.89 242.268 1443.64 259.337 1443.64 279.25C1443.64 299.164 1436.89 316.233 1423.37 330.101C1409.86 343.969 1392.79 351.081 1372.88 351.081ZM1338.03 315.877C1347.28 325.478 1359.01 330.101 1372.53 330.101C1386.04 330.101 1397.77 325.123 1407.02 315.877C1416.26 306.276 1421.24 293.83 1421.24 279.25C1421.24 264.671 1416.62 252.225 1407.02 242.623C1397.77 233.022 1386.04 228.399 1372.53 228.399C1359.01 228.399 1347.28 233.378 1338.03 242.623C1328.79 252.225 1323.81 264.671 1323.81 279.25C1323.81 293.83 1328.79 306.276 1338.03 315.877Z" fill="white"/>
<path d="M1570.23 348.236H1548.89L1548.18 347.17L1483.82 244.046L1484.53 262.892V348.236H1462.84V210.264H1487.02L1549.25 309.476L1548.89 290.629V210.264H1570.58V348.236H1570.23Z" fill="white"/>
<path d="M1617.87 348.236H1596.54V210.264H1618.23V348.236H1617.87Z" fill="white"/>
<path d="M1697.17 348.236H1644.19V210.264H1694.68C1705.7 210.264 1715.3 213.82 1723.12 221.287C1731.3 228.755 1735.21 238 1735.21 249.024C1735.21 255.78 1733.44 261.826 1729.88 267.16C1727.04 271.071 1723.48 274.627 1719.57 277.116C1724.9 279.606 1729.52 283.162 1733.08 287.784C1737.7 293.474 1739.84 300.586 1739.84 308.054C1739.84 319.433 1735.57 329.39 1727.04 336.857C1718.86 344.325 1708.55 348.236 1697.17 348.236ZM1665.52 327.256H1697.88C1703.92 327.256 1708.55 325.122 1712.1 321.211C1716.01 316.944 1717.79 312.676 1717.79 307.698C1717.79 302.72 1716.01 298.452 1712.1 294.185C1708.19 289.918 1703.57 288.14 1697.17 288.14H1665.52V327.256V327.256ZM1665.52 267.515H1694.32C1700.37 267.515 1704.63 265.737 1708.19 261.826C1711.75 257.914 1713.52 254.002 1713.52 249.38C1713.52 244.757 1711.75 240.845 1708.55 236.934C1704.99 233.022 1700.72 231.244 1695.39 231.244H1665.88V267.515H1665.52Z" fill="white"/>
<path d="M1780.02 348.236H1758.33V210.264H1780.02V348.236Z" fill="white"/>
<path d="M1885.62 348.236H1806.33V210.264H1828.02V327.256H1885.62V348.236V348.236Z" fill="white"/>
<path d="M1984.83 348.236H1902.69V210.264H1984.83V231.244H1924.03V268.938H1978.78V289.562H1924.03V327.256H1984.83V348.236Z" fill="white"/>
<path d="M2086.17 351.081C2076.21 351.081 2066.26 347.881 2056.66 341.125C2047.05 334.368 2040.65 325.123 2037.45 313.032L2037.1 311.254L2057.01 303.075L2057.72 305.565C2059.5 312.321 2063.06 318.366 2068.39 322.989C2073.72 327.612 2079.77 330.101 2086.52 330.101C2093.64 330.101 2099.32 328.323 2104.3 324.767C2108.92 321.211 2111.41 316.588 2111.41 310.543C2111.41 303.787 2109.28 298.808 2104.3 295.252C2099.32 291.341 2091.15 287.785 2080.12 284.229C2068.03 280.317 2058.79 275.339 2052.39 269.293C2045.99 262.893 2042.43 254.714 2042.43 245.113C2042.43 234.8 2046.34 225.91 2054.52 218.443C2062.34 210.975 2073.01 207.063 2085.81 207.063C2097.55 207.063 2107.15 209.908 2114.61 215.953C2122.08 221.999 2127.06 228.399 2129.19 235.511L2129.9 237.289L2109.99 245.468L2109.28 242.979C2108.21 239.067 2105.72 235.511 2101.81 232.311C2097.9 229.111 2092.57 227.333 2086.17 227.333C2080.12 227.333 2074.79 229.111 2070.52 232.311C2066.26 235.511 2064.48 239.423 2064.48 244.401C2064.48 248.669 2066.26 252.225 2070.17 255.069C2074.08 258.27 2080.48 261.115 2088.3 263.959C2095.06 266.093 2100.39 268.227 2105.01 270.36C2109.64 272.494 2114.26 274.983 2118.88 278.539C2123.86 282.095 2127.42 286.362 2129.9 291.696C2132.39 297.03 2133.46 303.075 2133.46 309.832C2133.46 316.588 2132.04 322.633 2129.19 328.323C2126.35 334.013 2122.44 337.924 2117.81 341.125C2113.19 344.325 2108.21 346.459 2102.88 348.237C2097.19 350.37 2091.86 351.081 2086.17 351.081Z" fill="white"/>
<path d="M2201.73 351.081C2186.44 351.081 2174 346.103 2164.39 335.79C2154.79 325.834 2150.17 312.321 2150.17 296.319V210.264H2171.86V297.03C2171.86 306.987 2174.35 315.166 2179.68 321.211C2184.66 327.256 2192.13 330.101 2202.09 330.101C2211.69 330.101 2219.15 327.256 2224.13 321.211C2229.11 315.166 2231.95 306.987 2231.95 297.03V210.264H2253.64V296.319C2253.64 312.676 2249.02 325.834 2239.78 335.79C2230.18 346.103 2217.38 351.081 2201.73 351.081Z" fill="white"/>
<defs>
<linearGradient id="paint0_linear_2840_4675" x1="484.463" y1="250.574" x2="111.476" y2="623.537" gradientUnits="userSpaceOnUse">
<stop stop-color="#00A0FF"/>
<stop offset="0.00657445" stop-color="#00A1FF"/>
<stop offset="0.2601" stop-color="#00BEFF"/>
<stop offset="0.5122" stop-color="#00D2FF"/>
<stop offset="0.7604" stop-color="#00DFFF"/>
<stop offset="1" stop-color="#00E3FF"/>
</linearGradient>
<linearGradient id="paint1_linear_2840_4675" x1="751.914" y1="501.532" x2="214.175" y2="501.532" gradientUnits="userSpaceOnUse">
<stop stop-color="#FFE000"/>
<stop offset="0.4087" stop-color="#FFBD00"/>
<stop offset="0.7754" stop-color="#FFA500"/>
<stop offset="1" stop-color="#FF9C00"/>
</linearGradient>
<linearGradient id="paint2_linear_2840_4675" x1="551.738" y1="552.53" x2="45.9375" y2="1058.3" gradientUnits="userSpaceOnUse">
<stop stop-color="#FF3A44"/>
<stop offset="1" stop-color="#C31162"/>
</linearGradient>
<linearGradient id="paint3_linear_2840_4675" x1="162.169" y1="60.9176" x2="388.03" y2="286.764" gradientUnits="userSpaceOnUse">
<stop stop-color="#32A071"/>
<stop offset="0.0685" stop-color="#2DA771"/>
<stop offset="0.4762" stop-color="#15CF74"/>
<stop offset="0.8009" stop-color="#06E775"/>
<stop offset="1" stop-color="#00F076"/>
</linearGradient>
</defs>
</svg>
